<svg width="49" height="42" viewBox="0 0 49 42" fill="none" xmlns="http://www.w3.org/2000/svg">
<path d="M28.15 22C28.15 25.5 26.15 28.1 22.15 28.4C18.65 28.4 15.65 26.1421 15.65 22C15.65 17.8579 18.5079 15.5 22.65 15.5C26.7922 15.5 28.15 18.5 28.15 22Z" fill="white"/>
<circle cx="14.5" cy="22" r="1.5" stroke="white"/>
<path d="M23.15 15.5C23.15 15.5 35.8408 15.5062 36.3408 15.5062C36.4598 15.5062 37.03 15.4063 36.8408 16.0062C36.3697 17.5 35.5069 20.0254 35 21.7C34.7642 22.2098 34.6082 22.5062 34.3408 22.5062C33.3408 22.5062 31.8216 22.5 30.65 22.5C28.15 22.5 27.55 25 27.55 25V20.5L23.15 15.5Z" fill="white"/>
</svg>
