<svg width="49" height="42" viewBox="0 0 49 42" fill="none" xmlns="http://www.w3.org/2000/svg">
<circle cx="24.5" cy="21.5" r="19.5" fill="#E51C44"/>
<path d="M28.15 22C28.15 25.5 26.15 28.1 22.15 28.4C18.65 28.4 15.65 26.1421 15.65 22C15.65 17.8579 18.5079 15.5 22.65 15.5C26.7922 15.5 28.15 18.5 28.15 22Z" fill="white"/>
<mask id="path-3-inside-1_275_481" fill="white">
<path d="M25.85 22.0036C25.85 23.9366 24.0829 26.0036 22.15 26.0036C19.6499 26.0036 17.95 23.9366 17.95 22.0036C17.95 20.0706 19.6499 18.0036 21.85 18.1036C24.4151 18.2202 25.85 20.0706 25.85 22.0036Z"/>
</mask>
<path d="M21.85 18.1036L21.8954 17.1046L21.85 18.1036ZM24.85 22.0036C24.85 22.6797 24.5311 23.4496 23.9819 24.059C23.4317 24.6697 22.7585 25.0036 22.15 25.0036V27.0036C23.4744 27.0036 24.6512 26.304 25.4677 25.3979C26.2853 24.4906 26.85 23.2604 26.85 22.0036H24.85ZM22.15 25.0036C20.2284 25.0036 18.95 23.4108 18.95 22.0036H16.95C16.95 24.4624 19.0715 27.0036 22.15 27.0036V25.0036ZM18.95 22.0036C18.95 21.3175 19.2593 20.556 19.8041 19.9755C20.341 19.4035 21.0459 19.0681 21.8045 19.1026L21.8954 17.1046C20.454 17.0391 19.2089 17.6872 18.3458 18.6069C17.4906 19.5182 16.95 20.7567 16.95 22.0036H18.95ZM21.8045 19.1026C23.8255 19.1944 24.85 20.5951 24.85 22.0036H26.85C26.85 19.5461 25.0047 17.246 21.8954 17.1046L21.8045 19.1026Z" fill="#E51C44" mask="url(#path-3-inside-1_275_481)"/>
<circle cx="14.5" cy="22" r="1.5" fill="#E51C44" stroke="white"/>
<path d="M23.15 15.5C23.15 15.5 35.8408 15.5062 36.3408 15.5062C36.4598 15.5062 37.03 15.4063 36.8408 16.0062C36.3697 17.5 35.5069 20.0254 35 21.7C34.7642 22.2098 34.6082 22.5062 34.3408 22.5062C33.3408 22.5062 31.8216 22.5 30.65 22.5C28.15 22.5 27.55 25 27.55 25V20.5L23.15 15.5Z" fill="white"/>
</svg>
